HIERARCHY
ROOT Hips
{
  OFFSET 5.80788e-005 67.184 3.4734
  CHANNELS 6 Xposition Yposition Zposition Zrotation Xrotation Yrotation
  JOINT Chest
  {
    OFFSET 0 8.7983 -4.7612
    CHANNELS 3 Zrotation Xrotation Yrotation
    JOINT Chest2
    {
      OFFSET 0 8.0291 0.4195
      CHANNELS 3 Zrotation Xrotation Yrotation
      JOINT Chest3
      {
        OFFSET 0 9.9351 -2.2114
        CHANNELS 3 Zrotation Xrotation Yrotation
        JOINT Neck
        {
          OFFSET 0 22.3885 -0.4656
          CHANNELS 3 Zrotation Xrotation Yrotation
          JOINT Head
          {
            OFFSET -0.0001 12.643 3.4389
            CHANNELS 3 Zrotation Xrotation Yrotation
            End Site
            {
              OFFSET 0.0001 17.6655 0.5274
            }
          }
        }
        JOINT LeftCollar
        {
          OFFSET 2.2603 21.606 7.4023
          CHANNELS 3 Zrotation Xrotation Yrotation
          JOINT LeftShoulder
          {
            OFFSET 13.5163 -1.1332 -5.0146
            CHANNELS 3 Zrotation Xrotation Yrotation
            JOINT LeftElbow
            {
              OFFSET -0.0995 -28.05 -0.2431
              CHANNELS 3 Zrotation Xrotation Yrotation
              JOINT LeftWrist
              {
                OFFSET 0.0679 -23.3996 -0.1402
                CHANNELS 3 Zrotation Xrotation Yrotation
                JOINT LeftFinger1
                {
                  OFFSET 0.7932 -9.069 2.5189
                  CHANNELS 3 Zrotation Xrotation Yrotation
                  JOINT LeftFinger11
                  {
                    OFFSET -0.8272 -3.3923 0.5977
                    CHANNELS 3 Zrotation Xrotation Yrotation
                    JOINT LeftFinger12
                    {
                      OFFSET -0.5649 -2.3158 0.4082
                      CHANNELS 3 Zrotation Xrotation Yrotation
                      End Site
                      {
                        OFFSET -0.4919 -1.6479 0.2673
                      }
                    }
                  }
                }
                JOINT LeftFinger2
                {
                  OFFSET 0.9159 -9.2044 0.2193
                  CHANNELS 3 Zrotation Xrotation Yrotation
                  JOINT LeftFinger21
                  {
                    OFFSET 0.0117 -4.1944 -0.0248
                    CHANNELS 3 Zrotation Xrotation Yrotation
                    JOINT LeftFinger22
                    {
                      OFFSET 0.0071 -2.3249 -0.0142
                      CHANNELS 3 Zrotation Xrotation Yrotation
                      End Site
                      {
                        OFFSET -0.1475 -2.0882 0.0028
                      }
                    }
                  }
                }
                JOINT LeftFinger3
                {
                  OFFSET 0.6113 -8.7231 -2.0637
                  CHANNELS 3 Zrotation Xrotation Yrotation
                  JOINT LeftFinger31
                  {
                    OFFSET -0.1927 -3.8059 -0.2383
                    CHANNELS 3 Zrotation Xrotation Yrotation
                    JOINT LeftFinger32
                    {
                      OFFSET -0.1091 -2.1688 -0.1362
                      CHANNELS 3 Zrotation Xrotation Yrotation
                      End Site
                      {
                        OFFSET -0.2358 -1.9176 -0.0906
                      }
                    }
                  }
                }
                JOINT LeftFinger4
                {
                  OFFSET -0.6151 -8.0947 -3.5641
                  CHANNELS 3 Zrotation Xrotation Yrotation
                  JOINT LeftFinger41
                  {
                    OFFSET -0.4882 -2.341 -0.6462
                    CHANNELS 3 Zrotation Xrotation Yrotation
                    JOINT LeftFinger42
                    {
                      OFFSET -0.3575 -1.7167 -0.4742
                      CHANNELS 3 Zrotation Xrotation Yrotation
                      End Site
                      {
                        OFFSET -0.4187 -1.5237 -0.3496
                      }
                    }
                  }
                }
                JOINT LeftFinger0
                {
                  OFFSET -1.42 -1.8761 1.4223
                  CHANNELS 3 Zrotation Xrotation Yrotation
                  JOINT LeftFinger01
                  {
                    OFFSET -1.1471 -3.4929 2.6334
                    CHANNELS 3 Zrotation Xrotation Yrotation
                    JOINT LeftFinger02
                    {
                      OFFSET -0.823 -2.3 1.6571
                      CHANNELS 3 Zrotation Xrotation Yrotation
                      End Site
                      {
                        OFFSET -0.5822 -1.6914 1.1582
                      }
                    }
                  }
                }
              }
            }
          }
        }
        JOINT RightCollar
        {
          OFFSET -2.2603 21.606 7.4023
          CHANNELS 3 Zrotation Xrotation Yrotation
          JOINT RightShoulder
          {
            OFFSET -13.5187 -1.1334 -5.0155
            CHANNELS 3 Zrotation Xrotation Yrotation
            JOINT RightElbow
            {
              OFFSET 0.0994 -28.0499 -0.2431
              CHANNELS 3 Zrotation Xrotation Yrotation
              JOINT RightWrist
              {
                OFFSET -0.0679 -23.3996 -0.1402
                CHANNELS 3 Zrotation Xrotation Yrotation
                JOINT RightFinger1
                {
                  OFFSET -0.7932 -9.0691 2.5189
                  CHANNELS 3 Zrotation Xrotation Yrotation
                  JOINT RightFinger11
                  {
                    OFFSET 0.8272 -3.3923 0.5977
                    CHANNELS 3 Zrotation Xrotation Yrotation
                    JOINT RightFinger12
                    {
                      OFFSET 0.565 -2.3158 0.4082
                      CHANNELS 3 Zrotation Xrotation Yrotation
                      End Site
                      {
                        OFFSET 0.4919 -1.6479 0.2673
                      }
                    }
                  }
                }
                JOINT RightFinger2
                {
                  OFFSET -0.916 -9.2044 0.2193
                  CHANNELS 3 Zrotation Xrotation Yrotation
                  JOINT RightFinger21
                  {
                    OFFSET -0.0117 -4.1944 -0.0248
                    CHANNELS 3 Zrotation Xrotation Yrotation
                    JOINT RightFinger22
                    {
                      OFFSET -0.0071 -2.3249 -0.0142
                      CHANNELS 3 Zrotation Xrotation Yrotation
                      End Site
                      {
                        OFFSET 0.1475 -2.0882 0.0028
                      }
                    }
                  }
                }
                JOINT RightFinger3
                {
                  OFFSET -0.6113 -8.7231 -2.0637
                  CHANNELS 3 Zrotation Xrotation Yrotation
                  JOINT RightFinger31
                  {
                    OFFSET 0.1927 -3.8059 -0.2383
                    CHANNELS 3 Zrotation Xrotation Yrotation
                    JOINT RightFinger32
                    {
                      OFFSET 0.1091 -2.1688 -0.1362
                      CHANNELS 3 Zrotation Xrotation Yrotation
                      End Site
                      {
                        OFFSET 0.2358 -1.9176 -0.0906
                      }
                    }
                  }
                }
                JOINT RightFinger4
                {
                  OFFSET 0.6151 -8.0947 -3.564
                  CHANNELS 3 Zrotation Xrotation Yrotation
                  JOINT RightFinger41
                  {
                    OFFSET 0.4882 -2.341 -0.6462
                    CHANNELS 3 Zrotation Xrotation Yrotation
                    JOINT RightFinger42
                    {
                      OFFSET 0.3574 -1.7166 -0.4742
                      CHANNELS 3 Zrotation Xrotation Yrotation
                      End Site
                      {
                        OFFSET 0.4187 -1.5237 -0.3496
                      }
                    }
                  }
                }
                JOINT RightFinger0
                {
                  OFFSET 1.4199 -1.8761 1.4221
                  CHANNELS 3 Zrotation Xrotation Yrotation
                  JOINT RightFinger01
                  {
                    OFFSET 1.1472 -3.4929 2.6336
                    CHANNELS 3 Zrotation Xrotation Yrotation
                    JOINT RightFinger02
                    {
                      OFFSET 0.8229 -2.3 1.6571
                      CHANNELS 3 Zrotation Xrotation Yrotation
                      End Site
                      {
                        OFFSET 0.5822 -1.6914 1.1582
                      }
                    }
                  }
                }
              }
            }
          }
        }
      }
    }
  }
  JOINT RightHip
  {
    OFFSET -9.412 3.9771 -0.7758
    CHANNELS 3 Zrotation Xrotation Yrotation
    JOINT RightKnee
    {
      OFFSET -0.7531 -40.938 0
      CHANNELS 3 Zrotation Xrotation Yrotation
      JOINT RightAnkle
      {
        OFFSET 0 -40.1986 0
        CHANNELS 3 Zrotation Xrotation Yrotation
        JOINT RightToe
        {
          OFFSET 0 -4.4182 9.239
          CHANNELS 3 Zrotation Xrotation Yrotation
          End Site
          {
            OFFSET 0 0 6.1981
          }
        }
      }
    }
  }
  JOINT LeftHip
  {
    OFFSET 9.4119 3.9773 -0.7758
    CHANNELS 3 Zrotation Xrotation Yrotation
    JOINT LeftKnee
    {
      OFFSET 0.7532 -40.9383 0
      CHANNELS 3 Zrotation Xrotation Yrotation
      JOINT LeftAnkle
      {
        OFFSET 0 -40.1986 0
        CHANNELS 3 Zrotation Xrotation Yrotation
        JOINT LeftToe
        {
          OFFSET 0 -4.4182 9.239
          CHANNELS 3 Zrotation Xrotation Yrotation
          End Site
          {
            OFFSET 0 0 6.1981
          }
        }
      }
    }
  }
}
MOTION
Frames:	5
Frame Time:	0.0333333
5.80788e-005 67.184 3.4734 0 0 -0 0 0 -0 0 0 -0 0 0 -0 0 0 -0 0 0 -0 0 0 -12.5014 88.1196 14.2451 10.6914 -0.00160068 -0.00239207 0.000740045 -8.4365e-005 7.00714e-005 -9.52055e-007 9.93923e-017 -1.98785e-016 -1.59028e-015 9.93923e-017 -5.96354e-016 -1.59028e-015 -9.93923e-017 -5.96354e-016 -1.59028e-015 9.93923e-017 -1.98785e-016 -1.59028e-015 -0.0128176 0.00232552 8.52707e-005 9.93923e-017 5.96354e-016 -0 9.93923e-017 -1.98785e-016 -1.59028e-015 -0.0160551 0.00299681 0.000857156 -2.48481e-016 0 3.18055e-015 9.93923e-017 -1.98785e-016 -1.59028e-015 -0.0125865 0.0031206 0.00282719 0 1.98785e-016 -0 9.93923e-017 -1.98785e-016 -1.59028e-015 9.93923e-017 -5.96354e-016 -1.59028e-015 -9.93923e-017 -5.96354e-016 -1.59028e-015 -0.865644 0.16582 7.03859 -88.0329 10.2057 -10.5567 0.0015593 -0.00248883 -0.000788628 7.87605e-005 4.10553e-005 1.24965e-005 -3.97569e-016 -7.95139e-016 3.18055e-015 -1.98785e-016 -3.97569e-016 3.18055e-015 -1.98785e-016 0 3.18055e-015 -3.97569e-016 -7.95139e-016 3.18055e-015 0.0129473 0.00231697 -8.70038e-005 9.93923e-017 -7.95139e-016 1.59028e-015 -3.97569e-016 -7.95139e-016 3.18055e-015 0.0163314 0.00303369 -0.000872333 3.97569e-016 7.95139e-016 -3.18055e-015 -3.97569e-016 -7.95139e-016 3.18055e-015 0.0145763 0.00367772 -0.00326275 9.93923e-017 -3.97569e-016 -0 -3.97569e-016 -7.95139e-016 3.18055e-015 -1.98785e-016 -3.97569e-016 3.18055e-015 -1.98785e-016 0 3.18055e-015 3.42485 1.36937 -0.0640303 0.000136572 0.69354 0.00145564 -3.42573 -2.06297 -0.0607933 -3.19502e-024 0 -1.48106e-024 -3.42498 1.36123 0.0639712 -6.769e-005 0.712612 -0.0012277 3.42582 -2.07388 0.0612819 2.55305e-023 0 -2.31416e-026 
-28.1679 2.48117 -16.9006 -97.2022 3.49971 -33.7834 7.60206 17.6623 -2.6308 17.4007 34.7398 -8.46214 17.4005 34.7395 -8.46202 -21.001 -0.0739227 0.034134 -0.942464 -0.026231 -0.00021282 -8.00328 -0.0438438 -12.2257 70.992 -20.4886 13.8676 -90.8885 -77.4005 -53.4411 -6.88351 1.25901 -0.137914 -1.59028e-014 -1.78906e-015 6.36111e-015 -2.11299e-006 1.42135e-005 1.13413e-005 3.18055e-015 5.96354e-016 -3.18055e-015 -1.59028e-014 -1.78906e-015 6.36111e-015 -0.0128143 0.00231764 8.96326e-005 3.5863e-032 -2.5842e-015 7.95139e-016 -1.59028e-014 -1.78906e-015 6.36111e-015 -0.0160535 0.00300511 0.000861974 -0 -6.36111e-015 -0 -1.59028e-014 -1.78906e-015 6.36111e-015 -0.0125691 0.00310041 0.00282224 9.54166e-015 9.34288e-015 -7.95139e-016 -1.59028e-014 -1.78906e-015 6.36111e-015 -2.11299e-006 1.42135e-005 1.13413e-005 3.18055e-015 5.96354e-016 -3.18055e-015 7.1328 -0.0306098 7.03601 -63.5487 -72.2202 -30.3596 20.2566 -16.5985 7.24373 19.6449 3.63823 0.488453 8.43512e-006 5.53041e-006 -3.53333e-006 9.54166e-015 -9.54166e-015 -4.77083e-015 1.27222e-014 3.18055e-015 -1.59028e-015 8.43512e-006 5.53041e-006 -3.53333e-006 0.0129702 0.00231779 -8.04857e-005 1.55611e-005 1.26222e-005 -4.96972e-006 8.43512e-006 5.53041e-006 -3.53333e-006 0.016307 0.00303398 -0.000875847 -4.77083e-015 -1.27222e-014 1.59028e-015 8.43512e-006 5.53041e-006 -3.53333e-006 0.0145592 0.00367624 -0.00325612 4.77083e-015 0 -7.95139e-015 8.43512e-006 5.53041e-006 -3.53333e-006 9.54166e-015 -9.54166e-015 -4.77083e-015 1.27222e-014 3.18055e-015 -1.59028e-015 12.4655 7.9228 5.56907 2.43123 16.0883 -0.799604 -4.83436 6.3435 18.2186 1.38907e-006 1.39849e-007 -3.05117e-006 -11.8679 27.9402 24.662 -13.4624 53.903 11.717 5.55196 3.69474 0.951356 -1.59028e-015 -1.98785e-016 -1.73937e-015 
-28.1679 2.48117 -16.9007 -97.2022 3.49971 -33.7834 7.60206 17.6623 -2.63079 17.4007 34.7398 -8.46215 17.4005 34.7395 -8.46203 -21.001 -0.0736803 0.0340166 -0.731317 -0.00215807 -0.130436 -8.00328 -0.0438448 -12.2257 70.9919 -20.4886 13.8676 -90.4865 -77.5094 -53.0526 -6.88354 1.25905 -0.137914 6.36111e-015 -9.93923e-016 7.95139e-016 6.36111e-015 -3.37934e-015 -0 -1.10348e-031 3.97569e-015 1.59028e-015 6.36111e-015 -9.93923e-016 7.95139e-016 -0.012838 0.00233834 8.57553e-005 -3.18055e-015 -5.96354e-016 -7.95139e-016 6.36111e-015 -9.93923e-016 7.95139e-016 -0.0160571 0.00299284 0.000862173 3.18055e-015 -1.98785e-015 -7.95139e-016 6.36111e-015 -9.93923e-016 7.95139e-016 -0.0126085 0.00308918 0.00284122 6.36111e-015 -1.98785e-016 -0 6.36111e-015 -9.93923e-016 7.95139e-016 6.36111e-015 -3.37934e-015 -0 -1.10348e-031 3.97569e-015 1.59028e-015 7.1328 -0.0306031 7.03601 -63.5487 -72.2204 -30.3597 20.2565 -16.5986 7.24369 19.645 3.63827 0.48842 -1.12873e-006 -1.18458e-006 3.1988e-006 1.90236e-006 -1.61093e-007 -1.75312e-006 -6.35721e-006 6.38587e-007 2.88277e-006 -1.12873e-006 -1.18458e-006 3.1988e-006 0.012998 0.0023363 -8.77215e-005 -1.63348e-005 -9.34922e-006 3.5241e-006 -1.12873e-006 -1.18458e-006 3.1988e-006 0.0162915 0.00302974 -0.000875746 -6.48295e-006 2.37277e-007 3.81344e-006 -1.12873e-006 -1.18458e-006 3.1988e-006 0.0145733 0.00368026 -0.00326496 -1.90304e-006 1.11128e-006 1.75312e-006 -1.12873e-006 -1.18458e-006 3.1988e-006 1.90236e-006 -1.61093e-007 -1.75312e-006 -6.35721e-006 6.38587e-007 2.88277e-006 12.4656 7.92288 5.56944 2.43125 16.0882 -0.799632 -4.83438 6.34328 18.2186 4.00476e-007 1.71143e-006 1.13906e-006 -11.8679 27.94 24.662 -13.4624 53.9034 11.7171 5.55193 3.69448 0.951406 1.59028e-015 7.95139e-016 -1.63997e-015 
-28.1679 2.48117 -16.9007 -97.2022 3.49971 -33.7834 7.60206 17.6623 -2.6308 17.4007 34.7398 -8.46214 17.4005 34.7395 -8.46202 -21.001 -0.0734367 0.0339071 -0.520018 0.0214453 -0.260782 -8.00328 -0.0438438 -12.2257 70.9919 -20.4886 13.8676 -90.0776 -77.6176 -52.6573 -6.88352 1.259 -0.137921 3.18055e-015 4.37326e-015 -7.95139e-016 -3.18055e-015 6.75868e-015 -0 4.68978e-032 3.37934e-015 -7.95139e-016 3.18055e-015 4.37326e-015 -7.95139e-016 -0.0128028 0.00231126 7.89908e-005 -1.65521e-032 -5.96354e-016 -1.59028e-015 3.18055e-015 4.37326e-015 -7.95139e-016 -0.0160733 0.00302321 0.000862592 1.29098e-005 -2.35862e-005 1.30436e-006 3.18055e-015 4.37326e-015 -7.95139e-016 -0.0125822 0.00311752 0.00283726 -5.69602e-006 -1.96677e-006 -3.59059e-006 3.18055e-015 4.37326e-015 -7.95139e-016 -3.18055e-015 6.75868e-015 -0 4.68978e-032 3.37934e-015 -7.95139e-016 7.13281 -0.0306064 7.03601 -63.5486 -72.2202 -30.3596 20.2566 -16.5989 7.24382 19.645 3.63827 0.488432 -4.77083e-015 -9.54166e-015 -3.18055e-015 -3.18055e-015 -1.27222e-014 1.59028e-015 -1.59028e-015 -3.18055e-015 3.18055e-015 -4.77083e-015 -9.54166e-015 -3.18055e-015 0.0130061 0.00232538 -8.27606e-005 -4.45265e-006 -1.05677e-005 1.12948e-006 -4.77083e-015 -9.54166e-015 -3.18055e-015 0.0162908 0.00302537 -0.000866501 -1.59028e-015 -6.36111e-015 6.36111e-015 -4.77083e-015 -9.54166e-015 -3.18055e-015 0.014584 0.0036825 -0.00325938 -1.27222e-014 6.36111e-015 7.95139e-015 -4.77083e-015 -9.54166e-015 -3.18055e-015 -3.18055e-015 -1.27222e-014 1.59028e-015 -1.59028e-015 -3.18055e-015 3.18055e-015 12.4655 7.92299 5.56978 2.43129 16.0879 -0.799595 -4.83435 6.34324 18.2186 1.04179e-006 3.95636e-007 -2.28839e-006 -11.8679 27.9401 24.662 -13.4625 53.9035 11.7172 5.55192 3.6942 0.951396 -1.68164e-006 -3.58118e-006 -5.39508e-008 
-28.1679 2.48116 -16.9007 -97.2022 3.49971 -33.7834 7.60207 17.6623 -2.63079 17.4007 34.7398 -8.46215 17.4005 34.7395 -8.46202 -21.0011 -0.0731969 0.0337939 -0.308542 0.0445491 -0.391267 -8.00328 -0.043849 -12.2257 70.9919 -20.4886 13.8676 -89.6617 -77.7253 -52.2549 -6.88355 1.25902 -0.137903 2.55841e-006 -6.24289e-006 -2.62364e-006 3.18055e-015 -8.54774e-015 -1.59028e-015 -1.13106e-031 -8.15017e-015 -7.95139e-016 2.55841e-006 -6.24289e-006 -2.62364e-006 -0.0128266 0.00230219 8.58706e-005 3.18055e-015 -3.57812e-015 -7.95139e-016 2.55841e-006 -6.24289e-006 -2.62364e-006 -0.0160631 0.00300125 0.000858428 9.54166e-015 -1.78906e-015 7.95139e-016 2.55841e-006 -6.24289e-006 -2.62364e-006 -0.0125735 0.00309773 0.00282285 -6.36111e-015 7.95139e-016 -7.95139e-016 2.55841e-006 -6.24289e-006 -2.62364e-006 3.18055e-015 -8.54774e-015 -1.59028e-015 -1.13106e-031 -8.15017e-015 -7.95139e-016 7.13281 -0.0306168 7.03603 -63.5487 -72.2204 -30.3596 20.2565 -16.599 7.24379 19.645 3.63825 0.488435 1.12871e-006 6.59518e-007 -3.1988e-006 7.95139e-015 9.54166e-015 1.59028e-015 -1.59028e-015 6.36111e-015 6.36111e-015 1.12871e-006 6.59518e-007 -3.1988e-006 0.0128909 0.00230742 -8.45605e-005 -1.59028e-015 0 1.59028e-015 1.12871e-006 6.59518e-007 -3.1988e-006 0.0163057 0.00303146 -0.000869079 7.95139e-015 1.27222e-014 7.95139e-015 1.12871e-006 6.59518e-007 -3.1988e-006 0.0145472 0.00366627 -0.00325292 -3.18055e-015 3.18055e-015 -4.77083e-015 1.12871e-006 6.59518e-007 -3.1988e-006 7.95139e-015 9.54166e-015 1.59028e-015 -1.59028e-015 6.36111e-015 6.36111e-015 12.4656 7.92314 5.57013 2.43123 16.0878 -0.799585 -4.83435 6.34299 18.2186 -0 -3.18055e-015 -0 -11.8679 27.9402 24.662 -13.4626 53.9037 11.7173 5.55194 3.69391 0.951392 -2.32011e-006 6.56346e-007 3.68202e-006 
